<?xml version="1.0" encoding="UTF-8" standalone="no"?>
<!-- Generator: Adobe Illustrator 22.1.0, SVG Export Plug-In . SVG Version: 6.00 Build 0)  -->

<svg
   xmlns:dc="http://purl.org/dc/elements/1.1/"
   xmlns:cc="http://creativecommons.org/ns#"
   xmlns:rdf="http://www.w3.org/1999/02/22-rdf-syntax-ns#"
   xmlns:svg="http://www.w3.org/2000/svg"
   xmlns="http://www.w3.org/2000/svg"
   xmlns:sodipodi="http://sodipodi.sourceforge.net/DTD/sodipodi-0.dtd"
   xmlns:inkscape="http://www.inkscape.org/namespaces/inkscape"
   version="1.1"
   id="Layer_1"
   x="0px"
   y="0px"
   viewBox="0 0 1100 302"
   enable-background="new 0 0 841.9 595.3"
   xml:space="preserve"
   inkscape:version="0.91 r13725"
   sodipodi:docname="bloola.svg"
   width="1100"
   height="302"><metadata
     id="metadata115"><rdf:RDF><cc:Work
         rdf:about=""><dc:format>image/svg+xml</dc:format><dc:type
           rdf:resource="http://purl.org/dc/dcmitype/StillImage" /><dc:title></dc:title></cc:Work></rdf:RDF></metadata><defs
     id="defs113" /><sodipodi:namedview
     pagecolor="#ffffff"
     bordercolor="#666666"
     borderopacity="1"
     objecttolerance="10"
     gridtolerance="10"
     guidetolerance="10"
     inkscape:pageopacity="0"
     inkscape:pageshadow="2"
     inkscape:window-width="1594"
     inkscape:window-height="917"
     id="namedview111"
     showgrid="false"
     inkscape:zoom="0.50383782"
     inkscape:cx="85.490883"
     inkscape:cy="180.28085"
     inkscape:window-x="0"
     inkscape:window-y="1"
     inkscape:window-maximized="0"
     inkscape:current-layer="Layer_1" /><g
     id="g3413"
     transform="matrix(3.4622521,0,0,3.4622521,-5.0600446,-13.85084)"><path
       d="m 120.23288,16.944434 0,18.2 c 1.7,-1.7 3.5,-2.9 5.4,-3.7 1.9,-0.8 4,-1.2 6.2,-1.2 4.8,0 8.9,1.8 12.2,5.4 3.4,3.6 5,8.3 5,13.9 0,5.5 -1.7,10 -5.2,13.7 -3.5,3.7 -7.6,5.5 -12.3,5.5 -2.1,0 -4.1,-0.4 -5.9,-1.1 -1.8,-0.8 -3.6,-2 -5.4,-3.7 l 0,3.9 -9.2,0 0,-50.9 9.2,0 z m 9.7,21.7 c -2.9,0 -5.3,1 -7.2,3 -1.9,2 -2.9,4.6 -2.9,7.8 0,3.3 1,5.9 2.9,7.9 1.9,2 4.3,3 7.2,3 2.8,0 5.2,-1 7.1,-3.1 1.9,-2 2.9,-4.7 2.9,-7.8 0,-3.2 -0.9,-5.7 -2.8,-7.7 -1.9,-2.1 -4.3,-3.1 -7.2,-3.1 z"
       id="path5"
       inkscape:connector-curvature="0"
       style="fill:#01386e;fill-opacity:1" /><path
       d="m 155.73288,16.944434 9.2,0 0,50.9 -9.2,0 0,-50.9 z"
       id="path7"
       inkscape:connector-curvature="0"
       style="fill:#01386e;fill-opacity:1" /><g
       transform="translate(-46.467115,-55.055566)"
       id="g9"><path
         d="m 283.8,94.9 c -1.7,-3 -4.1,-5.3 -7.1,-7.1 -1.3,-0.7 -2.5,-1.3 -3.9,-1.7 -1.9,-0.6 -3.9,-0.9 -5.9,-0.9 -0.3,0 -0.7,0 -1,0 -0.8,0 -1.6,0.1 -2.4,0.3 -2.5,0.5 -4.9,1.5 -7.1,3 -0.7,0.5 -1.5,1.1 -2.2,1.7 -4.2,3.8 -6.3,8.6 -6.3,14.4 0,5.4 1.9,9.9 5.6,13.7 3.7,3.7 8.2,5.6 13.5,5.6 0.9,0 1.9,-0.1 2.8,-0.2 2.4,-0.3 4.6,-1 6.6,-2.1 0.1,-0.1 0.3,-0.1 0.4,-0.2 3,-1.7 5.3,-4.1 7,-7.1 1.7,-3 2.6,-6.3 2.6,-9.7 0,-3.5 -0.9,-6.7 -2.6,-9.7 z m -9.6,17.4 c -1.9,2 -4.3,3 -7.2,3 -2.9,0 -5.3,-1 -7.2,-3 -1.9,-2 -2.8,-4.6 -2.8,-7.8 0,-3.1 0.9,-5.7 2.9,-7.7 1.9,-2 4.3,-3 7.1,-3 2.9,0 5.3,1 7.2,3 1.9,2 2.8,4.5 2.8,7.7 0.1,3.2 -0.8,5.8 -2.8,7.8 z"
         id="path11"
         inkscape:connector-curvature="0"
         style="fill:#01386e;fill-opacity:1" /><path
         d="m 292.9,72 9.2,0 0,50.9 -9.2,0 0,-50.9 z"
         id="path13"
         inkscape:connector-curvature="0"
         style="fill:#01386e;fill-opacity:1" /><path
         d="m 337.6,86.2 9.2,0 0,36.7 -9.2,0 0,-3.9 c -1.8,1.7 -3.6,2.9 -5.4,3.7 -1.8,0.8 -3.8,1.1 -5.9,1.1 -4.7,0 -8.8,-1.8 -12.3,-5.5 -3.5,-3.7 -5.2,-8.3 -5.2,-13.7 0,-5.7 1.7,-10.3 5,-13.9 3.4,-3.6 7.4,-5.4 12.2,-5.4 2.2,0 4.3,0.4 6.2,1.2 1.9,0.8 3.7,2.1 5.4,3.7 l 0,-4 z m -9.7,7.5 c -2.8,0 -5.2,1 -7.1,3 -1.9,2 -2.8,4.6 -2.8,7.7 0,3.2 1,5.8 2.9,7.8 1.9,2 4.3,3.1 7.1,3.1 2.9,0 5.3,-1 7.2,-3 1.9,-2 2.9,-4.7 2.9,-7.9 0,-3.2 -1,-5.8 -2.9,-7.8 -1.9,-1.9 -4.4,-2.9 -7.3,-2.9 z"
         id="path15"
         inkscape:connector-curvature="0"
         style="fill:#01386e;fill-opacity:1" /></g><g
       transform="translate(-46.467115,-55.055566)"
       id="g17"><g
         id="g19"><path
           d="m 254,94.9 c -1.7,-3 -4.1,-5.3 -7.1,-7.1 -3,-1.7 -6.3,-2.6 -9.8,-2.6 -4.8,0 -9,1.7 -12.7,5 -4.2,3.8 -6.3,8.6 -6.3,14.4 0,5.4 1.9,9.9 5.6,13.7 0.6,0.6 1.1,1.1 1.8,1.6 3.1,2.5 6.7,3.8 10.7,4 0.3,0 0.7,0 1,0 3.6,0 6.9,-0.8 9.8,-2.5 3,-1.7 5.3,-4.1 7,-7.1 1.7,-3 2.6,-6.3 2.6,-9.7 -0.1,-3.5 -0.9,-6.7 -2.6,-9.7 z m -9.6,17.4 c -1.9,2 -4.3,3 -7.2,3 -2.9,0 -5.3,-1 -7.2,-3 -1.9,-2 -2.8,-4.6 -2.8,-7.8 0,-3.1 0.9,-5.7 2.9,-7.7 1.9,-2 4.3,-3 7.1,-3 2.9,0 5.3,1 7.2,3 1.9,2 2.8,4.5 2.8,7.7 0,3.2 -0.9,5.8 -2.8,7.8 z"
           id="path21"
           inkscape:connector-curvature="0"
           style="fill:#01386e;fill-opacity:1" /></g></g><g
       transform="translate(-46.467115,-55.055566)"
       id="g23"><path
         d="m 86.8,98.9 c -0.7,0.2 -1.5,0.4 -2.2,0.4 -1.9,0 -3.6,-0.8 -4.9,-2 -1.8,1.5 -2.9,3.7 -2.9,6.2 l 0,6.7 8.9,0 0,-6 c 0,-2 0.4,-3.8 1.1,-5.3 z"
         id="path25"
         inkscape:connector-curvature="0"
         style="fill:#007d2a;fill-opacity:1" /><path
         d="m 89.6,92.2 c 0,1.1 -0.4,2.2 -1,3 -0.2,0.3 -0.4,0.5 -0.7,0.7 -0.9,0.8 -2,1.2 -3.3,1.2 -1.2,0 -2.2,-0.4 -3.1,-1.1 -1.1,-0.9 -1.9,-2.3 -1.9,-3.9 0,-1.7 0.9,-3.3 2.2,-4.2 0.8,-0.5 1.7,-0.8 2.8,-0.8 2.3,0 4.1,1.5 4.8,3.6 0,0.3 0.1,0.6 0.2,0.9 0,0.3 0,0.4 0,0.6 z"
         id="path27"
         inkscape:connector-curvature="0"
         style="fill:#007d2a;fill-opacity:1" /><path
         d="m 104.1,89.6 c 0,1.2 -0.3,2.3 -0.9,3.2 -0.2,0.3 -0.4,0.6 -0.6,0.8 -0.2,0.3 -0.5,0.5 -0.7,0.8 -1.1,1 -2.6,1.6 -4.2,1.6 -1.5,0 -2.9,-0.5 -4,-1.4 -0.3,-0.2 -0.5,-0.5 -0.8,-0.7 -0.2,-0.2 -0.4,-0.5 -0.6,-0.8 0,-0.1 -0.1,-0.2 -0.1,-0.3 -0.2,-0.4 -0.5,-0.9 -0.6,-1.3 0,-0.5 -0.1,-0.9 -0.3,-1.3 0,-0.2 0,-0.4 0,-0.6 0,-1.2 0.3,-2.3 0.9,-3.3 1.1,-1.9 3.2,-3.1 5.5,-3.1 3.6,0 6.4,2.9 6.4,6.4 z"
         id="path29"
         inkscape:connector-curvature="0"
         style="fill:#007d2a;fill-opacity:1" /><path
         d="m 91.6,91.5 c -0.1,-0.4 -0.2,-0.9 -0.3,-1.3 0.1,0.5 0.2,0.9 0.3,1.3 z"
         id="path31"
         inkscape:connector-curvature="0"
         style="fill:#2f7c3d" /><path
         d="m 116.1,105.9 c 1.8,0 3.3,-1.5 3.3,-3.3 0,-1.8 -1.5,-3.3 -3.3,-3.3 -1.8,0 -3.3,1.5 -3.3,3.3 0,1.8 1.5,3.3 3.3,3.3 z"
         id="path33"
         inkscape:connector-curvature="0"
         style="fill:#01386e;fill-opacity:1" /><path
         d="m 116.1,114.3 c -1.8,0 -3.3,1.5 -3.3,3.3 0,1.8 1.5,3.3 3.3,3.3 1.8,0 3.3,-1.5 3.3,-3.3 0.1,-1.8 -1.4,-3.3 -3.3,-3.3 z"
         id="path35"
         inkscape:connector-curvature="0"
         style="fill:#01386e;fill-opacity:1" /><path
         d="m 108.4,110.1 c 0,1.3 -0.8,2.5 -1.9,3 -0.4,0.2 -0.9,0.3 -1.4,0.3 -0.5,0 -1,-0.1 -1.4,-0.3 -1.1,-0.5 -1.9,-1.7 -1.9,-3 0,-1.8 1.5,-3.3 3.3,-3.3 1.8,0 3.3,1.5 3.3,3.3 z"
         id="path37"
         inkscape:connector-curvature="0"
         style="fill:#01386e;fill-opacity:1" /></g><g
       transform="translate(-46.467115,-55.055566)"
       id="g39"><rect
         x="103.9"
         y="105.4"
         transform="matrix(0.8281,-0.5605,0.5605,0.8281,-40.6079,80.2763)"
         width="13.4"
         height="2"
         id="rect41"
         style="fill:#01386e;fill-opacity:1" /></g><g
       transform="translate(-46.467115,-55.055566)"
       id="g43"><rect
         x="109.6"
         y="107.2"
         transform="matrix(0.5602,-0.8283,0.8283,0.5602,-45.6766,141.6893)"
         width="2"
         height="13.4"
         id="rect45"
         style="fill:#01386e;fill-opacity:1" /></g><g
       transform="translate(-46.467115,-55.055566)"
       id="g47"><path
         d="m 103.8,95.5 c -1.5,1.6 -3.7,2.6 -6.1,2.6 -2.3,0 -4.3,-0.9 -5.8,-2.3 -0.7,0.5 -1.2,1 -1.8,1.6 -1.5,1.8 -2.5,4.1 -2.5,6.7 l 0,9 13,0 c -0.6,-0.9 -0.9,-1.9 -0.9,-3 0,-2.9 2.4,-5.3 5.3,-5.3 0.6,0 1.2,0.1 1.7,0.3 l 1.6,-1.1 c 0.1,-3.6 -1.8,-6.7 -4.5,-8.5 z"
         id="path49"
         inkscape:connector-curvature="0"
         style="fill:#007d2a;fill-opacity:1" /></g><path
       d="m 92.732885,56.844434 c -4.2,19.1 -21.2,33.3 -41.6,33.3 -23.5,0 -42.6,-19.1 -42.6,-42.6 0,-23.5 19.1,-42.6 42.6,-42.6 0.8,0 1.6,0 2.5,0.1 -20.4,1.2 -36.5,18.2 -36.5,38.8 l 0,0.1 c -0.1,1.2 -0.2,2.4 -0.2,3.6 0,16.9 12.2,30.9 28.3,33.7 3.4,1 7,1.5 10.8,1.5 16.9,0 31.3,-10.8 36.7,-25.9 z"
       id="path51"
       inkscape:connector-curvature="0"
       style="fill:#007d2a;fill-opacity:1" /><path
       d="m 91.632885,43.844434 c 0,15.5 -10,28.7 -23.8,33.6 10.5,-5.8 17.6,-17 17.6,-29.9 0,-18.9 -15.3,-34.2 -34.2,-34.2 -9.5,0 -18,3.8 -24.2,10 6.4,-9.1 17.1,-15.1 29.1,-15.1 19.5,0 35.5,16 35.5,35.6 z"
       id="path53"
       inkscape:connector-curvature="0"
       style="fill:#01386e;fill-opacity:1" /></g><g
     id="g77"
     transform="translate(0,-293.29999)" /></svg>